<svg xmlns="http://www.w3.org/2000/svg" viewBox="0 0 100 100" width="100" height="100">
  <!-- Giglio di Firenze stilizzato -->
  <path d="M50 5 C45 15, 40 25, 40 35 C40 45, 45 50, 50 55 C55 50, 60 45, 60 35 C60 25, 55 15, 50 5 Z" fill="#8B4513"/>
  <path d="M30 40 C25 45, 20 50, 20 60 C20 70, 30 75, 40 75 C45 75, 48 70, 50 65 C52 70, 55 75, 60 75 C70 75, 80 70, 80 60 C80 50, 75 45, 70 40 C65 45, 60 50, 50 55 C40 50, 35 45, 30 40 Z" fill="#8B4513"/>
  <path d="M40 75 C35 80, 30 85, 30 90 C30 95, 35 95, 40 95 C45 95, 48 90, 50 85 C52 90, 55 95, 60 95 C65 95, 70 95, 70 90 C70 85, 65 80, 60 75 C55 80, 55 85, 50 85 C45 85, 45 80, 40 75 Z" fill="#8B4513"/>
  <!-- Cerchio decorativo -->
  <circle cx="50" cy="50" r="45" fill="none" stroke="#B22222" stroke-width="2" stroke-opacity="0.3"/>
</svg>